HIERARCHY
ROOT Hips
{
	OFFSET 0.000000 0.000000 0.000000
	CHANNELS 6 Xposition Yposition Zposition Zrotation Yrotation Xrotation 
	JOINT LHipJoint
	{
		OFFSET 0.000000 0.000000 0.000000
		CHANNELS 3 Zrotation Yrotation Xrotation
		JOINT LeftUpLeg
		{
			OFFSET 1.363060 -1.794630 0.839290
			CHANNELS 3 Zrotation Yrotation Xrotation
			JOINT LeftLeg
			{
				OFFSET 2.448110 -6.726130 0.000000
				CHANNELS 3 Zrotation Yrotation Xrotation
				JOINT LeftFoot
				{
					OFFSET 2.562200 -7.039590 0.000000
					CHANNELS 3 Zrotation Yrotation Xrotation
					JOINT LeftToeBase
					{
						OFFSET 0.157640 -0.433110 2.322550
						CHANNELS 3 Zrotation Yrotation Xrotation
						End Site
						{
							OFFSET 0.000000 0.000000 0.000000
						}
					}
				}
			}
		}
	}
	JOINT RHipJoint
	{
		OFFSET 0.000000 0.000000 0.000000
		CHANNELS 3 Zrotation Yrotation Xrotation
		JOINT RightUpLeg
		{
			OFFSET -1.305520 -1.794630 0.839290
			CHANNELS 3 Zrotation Yrotation Xrotation
			JOINT RightLeg
			{
				OFFSET -2.542530 -6.985550 0.000000
				CHANNELS 3 Zrotation Yrotation Xrotation
				JOINT RightFoot
				{
					OFFSET -2.568260 -7.056230 0.000000
					CHANNELS 3 Zrotation Yrotation Xrotation
					JOINT RightToeBase
					{
						OFFSET -0.164730 -0.452590 2.363150
						CHANNELS 3 Zrotation Yrotation Xrotation
						End Site
						{
							OFFSET 0.000000 0.000000 0.000000
						}
					}
				}
			}
		}
	}
	JOINT LowerBack
	{
		OFFSET 0.000000 0.000000 0.000000
		CHANNELS 3 Zrotation Yrotation Xrotation
		JOINT Spine
		{
			OFFSET 0.028270 2.035590 -0.193380
			CHANNELS 3 Zrotation Yrotation Xrotation
			JOINT Spine1
			{
				OFFSET 0.056720 2.048850 -0.042750
				CHANNELS 3 Zrotation Yrotation Xrotation
				JOINT Neck
				{
					OFFSET 0.000000 0.000000 0.000000
					CHANNELS 3 Zrotation Yrotation Xrotation
					JOINT Neck1
					{
						OFFSET -0.054170 1.746240 0.172020
						CHANNELS 3 Zrotation Yrotation Xrotation
						JOINT Head
						{
							OFFSET 0.104070 1.761360 -0.123970
							CHANNELS 3 Zrotation Yrotation Xrotation
							End Site
							{
								OFFSET 0.000000 0.000000 0.000000
							}
						}
					}
				}
				JOINT LeftShoulder
				{
					OFFSET 0.000000 0.000000 0.000000
					CHANNELS 3 Zrotation Yrotation Xrotation
					JOINT LeftArm
					{
						OFFSET 3.362410 1.200890 -0.311210
						CHANNELS 3 Zrotation Yrotation Xrotation
						JOINT LeftForeArm
						{
							OFFSET 4.983000 -0.000000 -0.000000
							CHANNELS 3 Zrotation Yrotation Xrotation
							JOINT LeftHand
							{
								OFFSET 3.483560 -0.000000 -0.000000
								CHANNELS 3 Zrotation Yrotation Xrotation
								JOINT LeftFingerBase
								{
									OFFSET 0.000000 0.000000 0.000000
									CHANNELS 3 Zrotation Yrotation Xrotation
									JOINT LeftHandIndex1
									{
										OFFSET 0.715260 -0.000000 -0.000000
										CHANNELS 3 Zrotation Yrotation Xrotation
										End Site
										{
											OFFSET 0.000000 0.000000 0.000000
										}
									}
								}
								JOINT LThumb
								{
									OFFSET 0.000000 0.000000 0.000000
									CHANNELS 3 Zrotation Yrotation Xrotation
									End Site
									{
										OFFSET 0.000000 0.000000 0.000000
									}
								}
							}
						}
					}
				}
				JOINT RightShoulder
				{
					OFFSET 0.000000 0.000000 0.000000
					CHANNELS 3 Zrotation Yrotation Xrotation
					JOINT RightArm
					{
						OFFSET -3.136600 1.374050 -0.404650
						CHANNELS 3 Zrotation Yrotation Xrotation
						JOINT RightForeArm
						{
							OFFSET -5.241900 -0.000000 -0.000000
							CHANNELS 3 Zrotation Yrotation Xrotation
							JOINT RightHand
							{
								OFFSET -3.444170 -0.000000 -0.000000
								CHANNELS 3 Zrotation Yrotation Xrotation
								JOINT RightFingerBase
								{
									OFFSET 0.000000 0.000000 0.000000
									CHANNELS 3 Zrotation Yrotation Xrotation
									JOINT RightHandIndex1
									{
										OFFSET -0.622530 -0.000000 -0.000000
										CHANNELS 3 Zrotation Yrotation Xrotation
										End Site
										{
											OFFSET 0.000000 0.000000 0.000000
										}
									}
								}
								JOINT RThumb
								{
									OFFSET 0.000000 0.000000 0.000000
									CHANNELS 3 Zrotation Yrotation Xrotation
									End Site
									{
										OFFSET 0.000000 0.000000 0.000000
									}
								}
							}
						}
					}
				}
			}
		}
	}
}
MOTION
Frames: 11
Frame Time: 0.008333
-7.841101 17.601253 5.223784 -25.909252 77.707485 -20.377441 18.728428 4.067192 -1.920349 -31.550855 -20.504292 -0.908947 -12.024621 2.920728 6.071209 1.297663 0.275020 -21.137096 2.048600 -8.966500 -25.690700 -23.827557 -4.457492 -5.645805 47.621489 4.419768 -1.194798 10.264874 -10.985085 25.403462 -1.698916 -2.796819 -19.422017 -2.696700 10.187100 -29.584700 5.628999 0.267127 14.500605 1.548385 1.666855 -4.418599 -1.013350 0.439087 -16.322613 1.321045 -3.559864 -13.609664 1.527737 -2.947785 29.092390 -1.067200 0.343600 19.939800 8.383932 -6.110637 0.822884 -81.315973 9.850663 22.168802 21.288144 -33.544245 -7.049972 0.872953 2.622049 9.928417 35.544742 28.241598 16.611000 -7.125000 0.000000 0.000000 6.679600 59.570500 2.383000 -8.957617 6.653643 1.629547 76.195849 -15.292331 38.186746 -50.077121 55.382694 -21.257656 0.986720 -2.758880 -16.287890 -27.114503 -19.976925 8.421100 7.125000 0.000000 0.000000 0.430500 -48.548300 -0.037700 
-7.776108 17.546466 5.220991 -24.204840 77.623339 -18.681465 18.747449 4.032520 -2.009242 -32.114784 -20.300368 -0.671999 -12.026739 3.007284 6.309960 1.396764 -0.827521 -21.484492 1.955000 -8.771700 -25.083700 -23.635934 -4.424325 -5.526834 46.877566 4.732667 -2.665218 9.507188 -12.038632 28.008812 -1.643015 -1.787684 -19.461138 -3.732500 11.795600 -35.012700 4.967446 0.276855 14.538923 1.548791 1.580991 -4.426939 -0.739653 0.455525 -16.385592 1.473654 -3.493647 -13.755508 1.541427 -2.979841 28.809371 -1.116800 0.328600 19.720700 8.372938 -6.115963 0.830648 -81.533922 10.025003 21.696932 21.710250 -33.947599 -7.232053 0.875485 2.608152 9.033507 36.020632 27.235963 16.268200 -7.125000 0.000000 0.000000 7.342700 58.557600 2.442700 -8.959617 6.670426 1.633233 76.315265 -15.119466 37.589580 -50.426597 55.515705 -21.509072 1.000618 -2.754947 -16.629505 -27.112470 -19.888674 8.376000 7.125000 0.000000 0.000000 0.421300 -48.449400 -0.035900 
-7.724114 17.509296 5.223569 -22.184218 77.674224 -16.538427 18.770444 3.953644 -2.124754 -32.654736 -19.996119 -0.799061 -12.019622 3.216179 6.707873 1.433709 -1.784826 -21.502035 1.903400 -8.661900 -24.743300 -23.480471 -4.347427 -5.375745 46.100832 5.544809 -4.169446 8.875383 -12.927888 30.123697 -1.623866 -0.864621 -19.686123 -4.672100 13.004700 -39.386200 4.210623 0.273773 14.506085 1.538170 1.455975 -4.435754 -0.441234 0.462247 -16.410592 1.557497 -3.431677 -13.968772 1.578299 -3.008314 28.482566 -1.142500 0.298700 19.486100 8.367066 -6.116923 0.834312 -81.709795 10.014152 21.334600 21.959445 -34.200570 -7.344053 0.836086 2.633495 8.180473 35.920304 27.344023 16.270400 -7.125000 0.000000 0.000000 7.213100 58.641800 2.413900 -8.973093 6.682866 1.644006 76.440469 -14.924488 37.166679 -50.410650 55.504284 -21.515881 1.005122 -2.757341 -17.003477 -27.166362 -19.846606 8.366900 7.125000 0.000000 0.000000 0.376500 -48.404000 -0.031600 
-7.682326 17.488563 5.230122 -20.277883 77.803313 -14.408323 18.793113 3.851464 -2.247266 -33.095190 -19.733708 -1.099730 -12.004532 3.461743 7.135113 1.433125 -2.602212 -21.350872 1.884800 -8.621800 -24.619200 -23.392623 -4.237751 -5.212305 45.425241 6.770788 -5.488338 8.497521 -13.531989 31.381585 -1.651278 0.044649 -20.183991 -5.364000 13.782300 -42.372300 3.518143 0.253873 14.422963 1.522751 1.314927 -4.441143 -0.175808 0.454353 -16.394658 1.598760 -3.364211 -14.236816 1.621278 -3.022934 28.111315 -1.158100 0.261200 19.232500 8.370727 -6.115660 0.833064 -81.843677 9.791794 21.080051 21.988533 -34.254960 -7.366140 0.789801 2.673974 7.442910 35.654951 27.960738 16.479800 -7.125000 0.000000 0.000000 6.828800 59.247500 2.383700 -8.997610 6.686400 1.662097 76.568895 -14.698781 36.952139 -49.928461 55.309336 -21.213889 0.993603 -2.768597 -17.343805 -27.329107 -19.842354 8.406500 7.125000 0.000000 0.000000 0.246400 -48.409800 -0.020700 
-7.646875 17.482870 5.238609 -18.841092 77.958874 -12.678521 18.813898 3.742251 -2.360917 -33.402077 -19.636489 -1.398578 -11.991011 3.657666 7.446809 1.423007 -3.251355 -21.213279 1.893700 -8.641000 -24.678500 -23.387765 -4.106815 -5.048340 44.941615 8.318702 -6.442881 8.463447 -13.754899 31.516228 -1.721869 1.015757 -20.980597 -5.653800 14.084200 -43.575800 3.029667 0.218829 14.301981 1.507110 1.186107 -4.442217 0.003564 0.431612 -16.341657 1.603374 -3.285429 -14.546034 1.660770 -3.010848 27.710196 -1.167300 0.222600 18.970000 8.386151 -6.116421 0.826777 -81.952350 9.374194 20.923116 21.795330 -34.103188 -7.297437 0.762764 2.711643 6.928499 35.485042 28.608319 16.748600 -7.125000 0.000000 0.000000 6.530700 59.904200 2.381600 -9.030981 6.679265 1.686895 76.686098 -14.471104 36.974164 -48.962260 54.910216 -20.592995 0.963090 -2.789256 -17.583382 -27.599118 -19.851981 8.483400 7.125000 0.000000 0.000000 0.028200 -48.440700 -0.002400 
-7.613036 17.490389 5.246128 -17.978298 78.114066 -11.481305 18.837924 3.633923 -2.455274 -33.614585 -19.812043 -1.537230 -11.993797 3.737946 7.528495 1.432433 -3.715819 -21.285303 1.917000 -8.691000 -24.833300 -23.458542 -3.964032 -4.886715 44.648307 10.094462 -6.928983 8.789502 -13.533874 30.429101 -1.818841 2.089544 -22.036465 -5.430700 13.853000 -42.651800 2.804762 0.175239 14.137400 1.491965 1.088711 -4.442249 0.066716 0.396772 -16.259847 1.589491 -3.191193 -14.869577 1.677417 -2.965007 27.293002 -1.182900 0.189400 18.703100 8.412771 -6.123830 0.816155 -82.050092 8.819328 20.883118 21.431909 -33.791258 -7.157681 0.748273 2.748650 6.708747 35.287904 29.357829 17.052500 -7.125000 0.000000 0.000000 6.166700 60.661700 2.359500 -9.068849 6.662786 1.716868 76.770807 -14.306102 37.246304 -47.596676 54.314506 -19.710097 0.915166 -2.817107 -17.679787 -27.922115 -19.831416 8.559800 7.125000 0.000000 0.000000 -0.235600 -48.444000 0.020000 
-7.577264 17.508652 5.250963 -17.689837 78.254569 -10.837091 18.868198 3.531734 -2.523983 -33.773959 -20.307145 -1.417788 -12.023593 3.657156 7.298864 1.478599 -3.963336 -21.686881 1.942000 -8.744100 -24.998200 -23.591136 -3.817334 -4.729313 44.519002 12.013120 -6.928375 9.434075 -12.872637 28.227616 -1.956001 2.571432 -23.274186 -5.119300 13.516900 -41.335600 2.853012 0.129063 13.920359 1.478057 1.032329 -4.444621 0.008338 0.354434 -16.155075 1.567303 -3.082127 -15.193530 1.653897 -2.884758 26.875854 -1.216000 0.164300 18.441200 8.447632 -6.141356 0.803241 -82.146619 8.206566 21.000919 20.997468 -33.405012 -6.983721 0.751558 2.775420 6.749195 35.123859 29.872865 17.235200 -7.125000 0.000000 0.000000 5.864400 61.167800 2.313900 -9.106566 6.639222 1.749449 76.797479 -14.250093 37.765200 -45.966802 53.550379 -18.655645 0.855245 -2.848402 -17.614062 -28.216189 -19.762053 8.601100 7.125000 0.000000 0.000000 -0.473500 -48.390500 0.039600 
-7.537624 17.534219 5.253111 -17.903179 78.376813 -10.688741 18.901725 3.436929 -2.566489 -33.900541 -21.105141 -1.015330 -12.078941 3.404966 6.744200 1.565793 -3.982953 -22.431242 1.965400 -8.793600 -25.151900 -23.766799 -3.667437 -4.573896 44.515248 14.018099 -6.497893 10.276118 -11.833557 25.197879 -2.135417 2.216490 -24.660638 -4.726500 13.069000 -39.627200 3.137427 0.085084 13.650126 1.467398 1.016191 -4.452539 -0.147861 0.309230 -16.036490 1.512644 -2.968783 -15.521158 1.596351 -2.776033 26.485607 -1.256500 0.143800 18.207000 8.485946 -6.170458 0.790036 -82.254281 7.606316 21.294323 20.602259 -33.044675 -6.818720 0.780066 2.781832 6.947756 35.154629 29.833501 17.216300 -7.125000 0.000000 0.000000 5.891000 61.118400 2.317500 -9.141234 6.611517 1.782408 76.750337 -14.318220 38.498717 -44.195020 52.649552 -17.512028 0.789739 -2.879610 -17.363587 -28.391713 -19.648993 8.581600 7.125000 0.000000 0.000000 -0.604700 -48.275600 0.048900 
-7.493364 17.563331 5.254508 -18.332843 78.497375 -10.771854 18.938768 3.347198 -2.586963 -34.052568 -22.144997 -0.335744 -12.154811 2.992815 5.893903 1.691531 -3.797349 -23.485141 1.991600 -8.848600 -25.322700 -23.959159 -3.515761 -4.416449 44.558734 16.054315 -5.724285 11.161679 -10.519705 21.707542 -2.346792 1.104626 -26.169175 -4.259000 12.497400 -37.515000 3.546993 0.047313 13.332115 1.460450 1.026777 -4.470374 -0.349600 0.267019 -15.919672 1.412823 -2.863365 -15.835593 1.511341 -2.649908 26.143004 -1.298400 0.124900 18.011100 8.522883 -6.210033 0.777860 -82.379851 7.082679 21.760570 20.343780 -32.814547 -6.701232 0.781923 2.797012 7.171420 34.875772 30.093815 17.194600 -7.125000 0.000000 0.000000 5.499200 61.323500 2.189600 -9.171744 6.583133 1.814412 76.634210 -14.505464 39.396521 -42.350562 51.630606 -16.329476 0.722956 -2.909004 -16.918893 -28.403343 -19.524670 8.504300 7.125000 0.000000 0.000000 -0.585200 -48.129400 0.045200 
-7.444056 17.591584 5.257193 -18.593326 78.646253 -10.721116 18.984186 3.260416 -2.590481 -34.314902 -23.345330 0.609595 -12.246002 2.436069 4.783632 1.850475 -3.449476 -24.802101 2.024500 -8.917000 -25.536000 -24.142366 -3.370681 -4.256290 44.564569 18.045225 -4.691392 11.966637 -9.047666 18.093915 -2.548568 -0.672496 -27.600095 -3.743900 11.811600 -35.068800 3.943085 0.016859 12.972033 1.454521 1.042927 -4.502696 -0.540069 0.231092 -15.817657 1.247429 -2.783601 -16.127646 1.411532 -2.525926 25.860788 -1.332300 0.100100 17.859800 8.554852 -6.257362 0.767844 -82.518039 6.677582 22.392058 20.269203 -32.758235 -6.646275 0.759496 2.815657 7.301102 34.372390 30.419025 17.083600 -7.125000 0.000000 0.000000 4.827900 61.546300 1.947000 -9.200648 6.557778 1.845200 76.478080 -14.785857 40.395954 -40.454710 50.497352 -15.131047 0.655222 -2.937045 -16.297238 -28.278010 -19.420710 8.394400 7.125000 0.000000 0.000000 -0.437600 -47.989300 0.032300 
-7.389591 17.615325 5.263746 -18.374618 78.849794 -10.244909 19.046204 3.177306 -2.579244 -34.768638 -24.639730 1.824686 -12.347651 1.741704 3.434762 2.039952 -2.974186 -26.344721 2.063300 -8.996700 -25.785100 -24.295852 -3.247725 -4.099550 44.483280 19.875545 -3.463166 12.621618 -7.528420 14.621989 -2.682959 -3.030391 -28.665560 -3.245500 11.082200 -32.557700 4.217287 -0.007584 12.574154 1.445102 1.045853 -4.550134 -0.682338 0.202420 -15.729497 1.008015 -2.738625 -16.400357 1.315325 -2.416418 25.642646 -1.347900 0.065600 17.755500 8.579451 -6.308079 0.759671 -82.655699 6.391530 23.134191 20.383189 -32.890593 -6.660144 0.667360 2.864477 7.279474 33.163999 31.660492 17.055600 -7.125000 0.000000 0.000000 3.071000 62.580600 1.312400 -9.232639 6.538051 1.875445 76.330681 -15.127342 41.422698 -38.510122 49.249359 -13.931055 0.584124 -2.965436 -15.544737 -28.088237 -19.348530 8.280400 7.125000 0.000000 0.000000 -0.227000 -47.875600 0.016100 
